# xmcd
#
# Track frame offsets:
#	150
#	10728
#	23383
#	38602
#	49457
#	63985
#	74848
#	89624
#	102480
#	118951
#	131559
#	148516
#	165489
#	178030
#	191516
#	202535
#	216359
#	229492
#	242431
#
# Disc length: 3515 seconds
#
# Revision: 1
# Processed by: cddbd v1.5.1PL0 Copyright (c) Steve Scherf et al.
# Submitted via: CDmax 2.0
#
DISCID=0f0db913
DTITLE=R.L. Burnside - Mississippi Hill Country Blues
DYEAR=2001
DGENRE=Blues
TTITLE0=Miss Maybelle
TTITLE1=House Up On The Hill
TTITLE2=Gone So Long
TTITLE3=Skinny Woman
TTITLE4=See What My Buddy Done
TTITLE5=Don't Care How Long You're Gone
TTITLE6=Lost Without Your Love
TTITLE7=Shake 'Em On Down
TTITLE8=Bad Luck And Trouble
TTITLE9=Just Like A Woman
TTITLE10=Greyhound Bus Station
TTITLE11=Crying Won't Make Me Stay
TTITLE12=Rolling And Tumbling
TTITLE13=Mellow Peaches
TTITLE14=I Believe
TTITLE15=Poor Boy
TTITLE16=Poor Black Mattie
TTITLE17=Jumper On The Line
TTITLE18=Long Haired Doney
EXTD=
EXTT0=
EXTT1=
EXTT2=
EXTT3=
EXTT4=
EXTT5=
EXTT6=
EXTT7=
EXTT8=
EXTT9=
EXTT10=
EXTT11=
EXTT12=
EXTT13=
EXTT14=
EXTT15=
EXTT16=
EXTT17=
EXTT18=
PLAYORDER=
